<svg xmlns="http://www.w3.org/2000/svg" viewBox="0 0 26 26" id="Star">
  <path d="M13 0A13 13 0 0 0 0 13a13 13 0 0 0 13 13 13 13 0 0 0 13-13A13 13 0 0 0 13 0zm.041 6.46c.054.073.103.135.172.249.207.345.451.841.691 1.355.24.515.48 1.048.698 1.487.108.22.212.415.314.582.102.167.175.3.363.44.188.138.338.168.528.216a8 8 0 0 0 .65.129c.485.079 1.066.149 1.629.227.563.079 1.112.165 1.504.261.13.032.202.062.287.092-.052.074-.094.14-.182.24-.265.304-.664.69-1.08 1.076-.416.387-.85.777-1.2 1.12a7.794 7.794 0 0 0-.46.476c-.128.148-.233.26-.307.48-.074.222-.057.376-.044.57.012.196.042.415.08.657.075.484.185 1.055.285 1.613.1.559.185 1.107.215 1.508.01.133.004.21.002.301-.087-.026-.165-.047-.288-.098-.37-.157-.861-.418-1.359-.693-.497-.275-1.003-.565-1.437-.793a7.82 7.82 0 0 0-.598-.287c-.18-.075-.319-.14-.553-.143-.234 0-.375.063-.556.135a7.968 7.968 0 0 0-.602.277c-.439.221-.95.503-1.451.77-.502.267-.996.518-1.37.67-.123.05-.201.069-.288.094-.002-.09-.006-.168.005-.301.036-.4.132-.947.24-1.504.11-.557.23-1.127.313-1.61.042-.24.074-.46.09-.654s.035-.346-.035-.568c-.07-.222-.174-.336-.299-.486a7.768 7.768 0 0 0-.451-.485c-.346-.347-.774-.745-1.184-1.138-.41-.394-.802-.785-1.062-1.092-.086-.102-.127-.17-.178-.244.086-.03.159-.058.29-.088.392-.09.942-.168 1.507-.237.564-.069 1.145-.132 1.63-.203.244-.035.463-.072.653-.117.19-.045.343-.073.533-.209.19-.135.265-.268.37-.433a7.78 7.78 0 0 0 .324-.579c.224-.435.472-.962.72-1.472.249-.51.5-1.004.713-1.346.07-.113.123-.173.178-.244z" fill="#efbf04" class="color000000 svgShape"></path>
</svg>
